<?xml version="1.0" encoding="utf-8"?>
<!-- Generator: Adobe Illustrator 25.2.1, SVG Export Plug-In . SVG Version: 6.00 Build 0)  -->
<svg version="1.1" id="Layer_1" xmlns="http://www.w3.org/2000/svg" xmlns:xlink="http://www.w3.org/1999/xlink" x="0px" y="0px"
	 viewBox="0 0 89.1 91.6" style="enable-background:new 0 0 89.1 91.6;" xml:space="preserve">
<style type="text/css">
	.st0{fill:#16BCC8;}
</style>
<g>
	<g>
		<path d="M21.4,46.2l62.7,1.7c2.6,0.1,4.3,2.7,3.3,5.1l-4.2,9.6c-0.6,1.3-1.9,2.2-3.4,2.2l-63.3-0.3c-2.6,0-4.4-2.7-3.3-5.1l4.8-11
			C18.6,47.1,20,46.2,21.4,46.2z"/>
		<path class="st0" d="M77.8,63.8L33.7,17.2c-0.9-1-1.2-2.4-0.6-3.6l4.4-10.3c0.9-2.2,3.8-2.7,5.4-1L87,49c0.9,1,1.2,2.4,0.6,3.6
			l-4.4,10.2C82.3,65,79.5,65.5,77.8,63.8z"/>
		<path d="M10,72l62.9,1.7c2.6,0.1,4.4,2.8,3.3,5.2L72,88.7c-0.5,1.2-1.6,1.9-2.9,1.9L4.7,90.2c-2.3,0-3.8-2.3-2.9-4.4L7,73.9
			C7.5,72.7,8.7,72,10,72z"/>
		<path class="st0" d="M66.7,89.5L22.6,43c-0.9-1-1.2-2.4-0.6-3.6l4.4-10.3c0.9-2.2,3.8-2.7,5.4-1l44.1,46.6c0.9,1,1.2,2.4,0.6,3.6
			l-4.4,10.2C71.2,90.7,68.4,91.2,66.7,89.5z"/>
	</g>
</g>
</svg>
